<?xml version="1.0" ?><!DOCTYPE svg  PUBLIC '-//W3C//DTD SVG 1.1//EN'  'http://www.w3.org/Graphics/SVG/1.1/DTD/svg11.dtd' [
	<!ENTITY stroke_color "#010101">
	<!ENTITY fill_color "#FFFFFF">
]><svg enable-background="new 0 0 55 55" height="55px" id="svg2" inkscape:version="0.48.4 r9939" sodipodi:docname="computer-xo.svg" version="1.1" viewBox="0 0 55 55" width="55px" x="0px" xml:space="preserve" xmlns="http://www.w3.org/2000/svg" xmlns:cc="http://creativecommons.org/ns#" xmlns:dc="http://purl.org/dc/elements/1.1/" xmlns:inkscape="http://www.inkscape.org/namespaces/inkscape" xmlns:rdf="http://www.w3.org/1999/02/22-rdf-syntax-ns#" xmlns:sodipodi="http://sodipodi.sourceforge.net/DTD/sodipodi-0.dtd" xmlns:svg="http://www.w3.org/2000/svg" y="0px"><metadata id="metadata13"><rdf:RDF><cc:Work rdf:about=""><dc:format>image/svg+xml</dc:format><dc:type rdf:resource="http://purl.org/dc/dcmitype/StillImage"/></cc:Work></rdf:RDF></metadata><defs id="defs11"/><sodipodi:namedview bordercolor="#666666" borderopacity="1" gridtolerance="10" guidetolerance="10" id="namedview9" inkscape:current-layer="svg2" inkscape:cx="42.346798" inkscape:cy="30.773444" inkscape:pageopacity="0" inkscape:pageshadow="2" inkscape:window-height="552" inkscape:window-maximized="1" inkscape:window-width="1024" inkscape:window-x="0" inkscape:window-y="0" inkscape:zoom="6.0682618" objecttolerance="10" pagecolor="#ffffff" showgrid="false"/><g display="block" id="stock-xo_1_" style="fill:#ffd5d5;stroke:#ffd5d5;display:block" transform="matrix(0.68605634,0,0,0.68605634,8.7105759,6.2069927)"><path d="m 33.233,35.1 10.102,10.1 c 0.752,0.75 1.217,1.783 1.217,2.932 0,2.287 -1.855,4.143 -4.146,4.143 -1.145,0 -2.178,-0.463 -2.932,-1.211 l -10.102,-10.103 -10.1,10.1 c -0.75,0.75 -1.787,1.211 -2.934,1.211 -2.284,0 -4.143,-1.854 -4.143,-4.141 0,-1.146 0.465,-2.184 1.212,-2.934 L 21.511,35.095 11.409,24.995 c -0.747,-0.748 -1.212,-1.785 -1.212,-2.93 0,-2.289 1.854,-4.146 4.146,-4.146 1.143,0 2.18,0.465 2.93,1.214 L 27.372,29.235 37.474,19.132 c 0.754,-0.749 1.787,-1.214 2.934,-1.214 2.289,0 4.146,1.856 4.146,4.145 0,1.146 -0.467,2.18 -1.217,2.932 L 33.233,35.1 z" id="path5" inkscape:connector-curvature="0" style="fill:&fill_color;;stroke:&stroke_color;;stroke-width:3.5"/><circle cx="27.371" cy="10.849" d="m 35.493,10.849 c 0,4.485657 -3.636343,8.122 -8.122,8.122 -4.485656,0 -8.121999,-3.636343 -8.121999,-8.122 0,-4.4856566 3.636343,-8.1219998 8.121999,-8.1219998 4.485657,0 8.122,3.6363432 8.122,8.1219998 z" id="circle7" r="8.1219997" sodipodi:cx="27.371" sodipodi:cy="10.849" sodipodi:rx="8.1219997" sodipodi:ry="8.1219997" style="fill:&fill_color;;stroke:&stroke_color;;stroke-width:3.5"/></g><g id="g7178"><path d="m 44.087593,2.875098 c 11.246649,12.776408 11.247778,33.492201 0,46.268608" id="path7130" inkscape:connector-curvature="0" style="fill:none;stroke:&fill_color;;stroke-width:4.21319818000000001;stroke-linecap:round"/><rect height="1.8630797" id="rect7136" style="fill:&fill_color;;stroke:&fill_color;;stroke-width:1.00223767999999991;stroke-linecap:round;stroke-linejoin:round;stroke-miterlimit:4;stroke-dasharray:none" transform="matrix(0,1,-1,0,0,0)" width="11.423306" x="41.502522" y="-42.503334"/><rect height="1.8630797" id="rect7174" style="fill:&fill_color;;stroke:&fill_color;;stroke-width:1.00223767999999991;stroke-linecap:round;stroke-linejoin:round;stroke-miterlimit:4;stroke-dasharray:none" transform="scale(-1,-1)" width="11.423306" x="-52.090122" y="-52.90419"/></g><g id="g7183" style="fill:&stroke_color;;stroke:&stroke_color;" transform="matrix(-1,0,0,-1,54.629602,54.195499)"><path d="m 44.087593,2.875098 c 11.246649,12.776408 11.247778,33.492201 0,46.268608" id="path7185" inkscape:connector-curvature="0" style="fill:none;stroke:&stroke_color;;stroke-width:4.21319818000000001;stroke-linecap:round"/><rect height="1.8630797" id="rect7187" style="fill:&stroke_color;;stroke:&stroke_color;;stroke-width:1.00223767999999991;stroke-linecap:round;stroke-linejoin:round;stroke-miterlimit:4;stroke-dasharray:none" transform="matrix(0,1,-1,0,0,0)" width="11.423306" x="41.502522" y="-42.503334"/><rect height="1.8630797" id="rect7189" style="fill:&stroke_color;;stroke:&stroke_color;;stroke-width:1.00223767999999991;stroke-linecap:round;stroke-linejoin:round;stroke-miterlimit:4;stroke-dasharray:none" transform="scale(-1,-1)" width="11.423306" x="-52.090122" y="-52.90419"/></g></svg>
